<?xml version="1.0" encoding="UTF-8"?>
<!-- Created with Inkscape (http://www.inkscape.org/) -->
<svg width="210mm" height="297mm" version="1.1" viewBox="0 0 210 297" xmlns="http://www.w3.org/2000/svg" xmlns:xlink="http://www.w3.org/1999/xlink">
 <g>
  <text transform="scale(.26458)" fill="black" font-family="sans-serif" font-size="40px" style="line-height:1.25;shape-inside:url(#rect26933);white-space:pre" xml:space="preserve"/>
  <rect x="-2968.6" y="-1131.4" width="6550" height="3300" ry="33.546" fill="#662e9b" style="paint-order:stroke markers fill"/>
  <text transform="matrix(1.5134 0 0 1.5134 18047 15003)" fill="#f9c80e" font-family="Papyrus" font-size="192px" style="font-variant-caps:normal;font-variant-east-asian:normal;font-variant-ligatures:normal;font-variant-numeric:normal;line-height:1.25;shape-inside:url(#rect32349);white-space:pre" xml:space="preserve"/>
  <text transform="scale(.26458)" fill="#000000" font-family="sans-serif" font-size="40px" style="line-height:1.25;shape-inside:url(#rect40853);white-space:pre" xml:space="preserve"/>
 </g>
 <g fill="#f9c80e">
  <path d="m1461.4 490.29a1169.1 1169.1 0 0 1-1168.8 1169.1 1169.1 1169.1 0 0 1-1169.5-1168.4 1169.1 1169.1 0 0 1 1168.1-1169.9 1169.1 1169.1 0 0 1 1170.2 1167.7" stroke="#fb6f92" stroke-linecap="round" stroke-opacity=".68628" stroke-width="18.898" style="paint-order:stroke markers fill"/>
  <path d="m1353 253.14 33-174.43 37.714 165 28.286-122.57 9.4285 89.571 37.714 113.14v-216.86l14.143 84.857 47.143-183.86 18.857 179.14 33 132-18.857 174.43 47.143-155.57-9.4286 103.71 37.714-70.714 9.4286 61.286 47.143-264 56.572 202.71 37.714-113.14 23.572 70.714 28.286-33 9.4285 51.857 56.572 108.43 23.571-94.286 14.143 42.429 33-56.571 9.4285 37.714 193.29-4.7143-169.71 47.143-33 51.857-14.143-42.429-42.429 150.86-18.857-66-9.4286 47.143-14.143-84.857-33-75.429-9.4286 193.29-18.857-117.86-33 202.71-28.286-212.14-28.286 113.14-14.143-113.14-47.143 70.714v-84.857l-37.714 56.571-14.143-56.571-18.857 84.857-18.857-23.571-28.286 117.86-84.857 160.29 47.143-245.14-51.857 141.43v-146.14l-28.286 108.43v-169.71l-14.143 84.857-37.714 99-42.429-61.286z"/>
  <path d="m-848.98 365.2-33-174.43-37.714 165-28.286-122.57-9.4285 89.571-37.714 113.14v-216.86l-14.143 84.857-47.143-183.86-18.857 179.14-33 132 18.857 174.43-47.143-155.57 9.4286 103.71-37.714-70.714-9.4286 61.286-47.143-264-56.572 202.71-37.714-113.14-23.572 70.714-28.286-33-9.4285 51.857-56.572 108.43-23.571-94.286-14.143 42.429-33-56.571-9.4285 37.714-193.29-4.7143 169.71 47.143 33 51.857 14.143-42.429 42.429 150.86 18.857-66 9.4286 47.143 14.143-84.857 33-75.429 9.4286 193.29 18.857-117.86 33 202.71 28.286-212.14 28.286 113.14 14.143-113.14 47.143 70.714v-84.857l37.714 56.571 14.143-56.571 18.857 84.857 18.857-23.571 28.286 117.86 84.857 160.29-47.143-245.14 51.857 141.43v-146.14l28.286 108.43v-169.71l14.143 84.857 37.714 99 42.429-61.286z"/>
 </g>
 <g display="none">
  <path d="m-968.45 1111.4c85.34 263.78 146.77 285.43 377.14 193.29 49.643-19.857 102.91-46.334 141.43-84.857 83.995-83.995-14.938-180.02 183.86-254.57 127.78-47.916 464.42 39.132 546.86-33 215.79-188.81 199.53-705.05 570.43-674.14 317.1 26.425 563.94 672.13 372.43 891-147.82 168.93-429.78 46.793-622.29 89.571-94.558 21.013-123.37 238.32-42.429 292.29 337 224.67 404.6-133.56 655.29-179.14 77.118-14.021 238.03 51.024 287.57-4.7143 141.91-159.65 70.265-852.49 4.7142-1041.9-93.269-269.44-382.01-422.22-645.86-480.86-152.31-33.848-521.15 78.954-650.57 150.86-41.132 22.851-89.691 70.834-122.57 103.71-57.605 57.605-165.59 79.211-235.71 108.43-79.7 33.208-157.08 110.5-235.71 136.71-142.89 47.631-269.77-43.783-311.14-188.57 15.061-507.17-964.56 60.487-457.29 240.43 377.82 28.826 93.823 454 183.86 735.43z" fill="#80ffdb" fill-opacity=".48131" stroke="#000" stroke-width=".26458px"/>
  <g fill-opacity=".48131">
   <path d="m-499.71-473.79a47.143 40.071 0 0 1-47.128 40.071 47.143 40.071 0 0 1-47.157-40.047 47.143 40.071 0 0 1 47.1-40.096 47.143 40.071 0 0 1 47.186 40.022" fill="#80ffdb" stroke="#64dfdf" stroke-linecap="round" stroke-width="5" style="paint-order:stroke markers fill"/>
   <path d="m-518.57-488.52a12.964 12.964 0 0 1-12.96 12.964 12.964 12.964 0 0 1-12.968-12.956 12.964 12.964 0 0 1 12.952-12.972 12.964 12.964 0 0 1 12.976 12.948" fill="#fff" style="paint-order:stroke markers fill"/>
  </g>
  <g transform="matrix(1.0078 .000546 -.000546 1.0078 -455.22 1671.2)" fill-opacity=".48131">
   <path d="m-499.71-473.79a47.143 40.071 0 0 1-47.128 40.071 47.143 40.071 0 0 1-47.157-40.047 47.143 40.071 0 0 1 47.1-40.096 47.143 40.071 0 0 1 47.186 40.022" fill="#80ffdb" stroke="#64dfdf" stroke-linecap="round" stroke-width="5" style="paint-order:stroke markers fill"/>
   <path d="m-518.57-488.52a12.964 12.964 0 0 1-12.96 12.964 12.964 12.964 0 0 1-12.968-12.956 12.964 12.964 0 0 1 12.952-12.972 12.964 12.964 0 0 1 12.976 12.948" fill="#fff" style="paint-order:stroke markers fill"/>
  </g>
  <g transform="matrix(.99529 .095679 -.095679 .99529 -302.92 1852.8)" fill-opacity=".48131">
   <path d="m-499.71-473.79a47.143 40.071 0 0 1-47.128 40.071 47.143 40.071 0 0 1-47.157-40.047 47.143 40.071 0 0 1 47.1-40.096 47.143 40.071 0 0 1 47.186 40.022" fill="#80ffdb" stroke="#64dfdf" stroke-linecap="round" stroke-width="5" style="paint-order:stroke markers fill"/>
   <path d="m-518.57-488.52a12.964 12.964 0 0 1-12.96 12.964 12.964 12.964 0 0 1-12.968-12.956 12.964 12.964 0 0 1 12.952-12.972 12.964 12.964 0 0 1 12.976 12.948" fill="#fff" style="paint-order:stroke markers fill"/>
  </g>
  <g transform="matrix(.99547 .12665 -.12665 .99547 519.47 846.4)" fill-opacity=".48131">
   <path d="m-499.71-473.79a47.143 40.071 0 0 1-47.128 40.071 47.143 40.071 0 0 1-47.157-40.047 47.143 40.071 0 0 1 47.1-40.096 47.143 40.071 0 0 1 47.186 40.022" fill="#80ffdb" stroke="#64dfdf" stroke-linecap="round" stroke-width="5" style="paint-order:stroke markers fill"/>
   <path d="m-518.57-488.52a12.964 12.964 0 0 1-12.96 12.964 12.964 12.964 0 0 1-12.968-12.956 12.964 12.964 0 0 1 12.952-12.972 12.964 12.964 0 0 1 12.976 12.948" fill="#fff" style="paint-order:stroke markers fill"/>
  </g>
  <g transform="matrix(.99979 -.088817 .088817 .99979 584.75 58.979)" fill-opacity=".48131">
   <path d="m-499.71-473.79a47.143 40.071 0 0 1-47.128 40.071 47.143 40.071 0 0 1-47.157-40.047 47.143 40.071 0 0 1 47.1-40.096 47.143 40.071 0 0 1 47.186 40.022" fill="#80ffdb" stroke="#64dfdf" stroke-linecap="round" stroke-width="5" style="paint-order:stroke markers fill"/>
   <path d="m-518.57-488.52a12.964 12.964 0 0 1-12.96 12.964 12.964 12.964 0 0 1-12.968-12.956 12.964 12.964 0 0 1 12.952-12.972 12.964 12.964 0 0 1 12.976 12.948" fill="#fff" style="paint-order:stroke markers fill"/>
  </g>
  <g transform="matrix(.98247 .17371 -.17371 .98247 1119.3 260.99)" fill-opacity=".48131">
   <path d="m-499.71-473.79a47.143 40.071 0 0 1-47.128 40.071 47.143 40.071 0 0 1-47.157-40.047 47.143 40.071 0 0 1 47.1-40.096 47.143 40.071 0 0 1 47.186 40.022" fill="#80ffdb" stroke="#64dfdf" stroke-linecap="round" stroke-width="5" style="paint-order:stroke markers fill"/>
   <path d="m-518.57-488.52a12.964 12.964 0 0 1-12.96 12.964 12.964 12.964 0 0 1-12.968-12.956 12.964 12.964 0 0 1 12.952-12.972 12.964 12.964 0 0 1 12.976 12.948" fill="#fff" style="paint-order:stroke markers fill"/>
  </g>
  <g transform="matrix(1.0008 .065763 -.065763 1.0008 1252.1 1637.9)" fill-opacity=".48131">
   <path d="m-499.71-473.79a47.143 40.071 0 0 1-47.128 40.071 47.143 40.071 0 0 1-47.157-40.047 47.143 40.071 0 0 1 47.1-40.096 47.143 40.071 0 0 1 47.186 40.022" fill="#80ffdb" stroke="#64dfdf" stroke-linecap="round" stroke-width="5" style="paint-order:stroke markers fill"/>
   <path d="m-518.57-488.52a12.964 12.964 0 0 1-12.96 12.964 12.964 12.964 0 0 1-12.968-12.956 12.964 12.964 0 0 1 12.952-12.972 12.964 12.964 0 0 1 12.976 12.948" fill="#fff" style="paint-order:stroke markers fill"/>
  </g>
  <g transform="matrix(1.0009 .079164 -.079164 1.0009 867.57 1027.5)" fill-opacity=".48131">
   <path d="m-499.71-473.79a47.143 40.071 0 0 1-47.128 40.071 47.143 40.071 0 0 1-47.157-40.047 47.143 40.071 0 0 1 47.1-40.096 47.143 40.071 0 0 1 47.186 40.022" fill="#80ffdb" stroke="#64dfdf" stroke-linecap="round" stroke-width="5" style="paint-order:stroke markers fill"/>
   <path d="m-518.57-488.52a12.964 12.964 0 0 1-12.96 12.964 12.964 12.964 0 0 1-12.968-12.956 12.964 12.964 0 0 1 12.952-12.972 12.964 12.964 0 0 1 12.976 12.948" fill="#fff" style="paint-order:stroke markers fill"/>
  </g>
  <g transform="matrix(1.0214 -.13084 .13084 1.0214 -721.52 438.82)" fill-opacity=".48131">
   <path d="m-499.71-473.79a47.143 40.071 0 0 1-47.128 40.071 47.143 40.071 0 0 1-47.157-40.047 47.143 40.071 0 0 1 47.1-40.096 47.143 40.071 0 0 1 47.186 40.022" fill="#80ffdb" stroke="#64dfdf" stroke-linecap="round" stroke-width="5" style="paint-order:stroke markers fill"/>
   <path d="m-518.57-488.52a12.964 12.964 0 0 1-12.96 12.964 12.964 12.964 0 0 1-12.968-12.956 12.964 12.964 0 0 1 12.952-12.972 12.964 12.964 0 0 1 12.976 12.948" fill="#fff" style="paint-order:stroke markers fill"/>
  </g>
  <g transform="matrix(1.0179 .11528 -.11528 1.0179 -1034 1126.5)" fill-opacity=".48131">
   <path d="m-499.71-473.79a47.143 40.071 0 0 1-47.128 40.071 47.143 40.071 0 0 1-47.157-40.047 47.143 40.071 0 0 1 47.1-40.096 47.143 40.071 0 0 1 47.186 40.022" fill="#80ffdb" stroke="#64dfdf" stroke-linecap="round" stroke-width="5" style="paint-order:stroke markers fill"/>
   <path d="m-518.57-488.52a12.964 12.964 0 0 1-12.96 12.964 12.964 12.964 0 0 1-12.968-12.956 12.964 12.964 0 0 1 12.952-12.972 12.964 12.964 0 0 1 12.976 12.948" fill="#fff" style="paint-order:stroke markers fill"/>
  </g>
  <g transform="matrix(.99408 -.23555 .23555 .99408 -692.31 1076.6)" fill-opacity=".48131">
   <path d="m-499.71-473.79a47.143 40.071 0 0 1-47.128 40.071 47.143 40.071 0 0 1-47.157-40.047 47.143 40.071 0 0 1 47.1-40.096 47.143 40.071 0 0 1 47.186 40.022" fill="#80ffdb" stroke="#64dfdf" stroke-linecap="round" stroke-width="5" style="paint-order:stroke markers fill"/>
   <path d="m-518.57-488.52a12.964 12.964 0 0 1-12.96 12.964 12.964 12.964 0 0 1-12.968-12.956 12.964 12.964 0 0 1 12.952-12.972 12.964 12.964 0 0 1 12.976 12.948" fill="#fff" style="paint-order:stroke markers fill"/>
  </g>
  <g transform="matrix(.97512 .12099 -.12099 .97512 -209.64 243.23)" fill-opacity=".48131">
   <path d="m-499.71-473.79a47.143 40.071 0 0 1-47.128 40.071 47.143 40.071 0 0 1-47.157-40.047 47.143 40.071 0 0 1 47.1-40.096 47.143 40.071 0 0 1 47.186 40.022" fill="#80ffdb" stroke="#64dfdf" stroke-linecap="round" stroke-width="5" style="paint-order:stroke markers fill"/>
   <path d="m-518.57-488.52a12.964 12.964 0 0 1-12.96 12.964 12.964 12.964 0 0 1-12.968-12.956 12.964 12.964 0 0 1 12.952-12.972 12.964 12.964 0 0 1 12.976 12.948" fill="#fff" style="paint-order:stroke markers fill"/>
  </g>
  <g transform="matrix(.99727 .061068 -.061068 .99727 29.814 142.68)" fill-opacity=".48131">
   <path d="m-499.71-473.79a47.143 40.071 0 0 1-47.128 40.071 47.143 40.071 0 0 1-47.157-40.047 47.143 40.071 0 0 1 47.1-40.096 47.143 40.071 0 0 1 47.186 40.022" fill="#80ffdb" stroke="#64dfdf" stroke-linecap="round" stroke-width="5" style="paint-order:stroke markers fill"/>
   <path d="m-518.57-488.52a12.964 12.964 0 0 1-12.96 12.964 12.964 12.964 0 0 1-12.968-12.956 12.964 12.964 0 0 1 12.952-12.972 12.964 12.964 0 0 1 12.976 12.948" fill="#fff" style="paint-order:stroke markers fill"/>
  </g>
  <g transform="matrix(1.0185 -.084692 .084692 1.0185 333.66 89.977)" fill-opacity=".48131">
   <path d="m-499.71-473.79a47.143 40.071 0 0 1-47.128 40.071 47.143 40.071 0 0 1-47.157-40.047 47.143 40.071 0 0 1 47.1-40.096 47.143 40.071 0 0 1 47.186 40.022" fill="#80ffdb" stroke="#64dfdf" stroke-linecap="round" stroke-width="5" style="paint-order:stroke markers fill"/>
   <path d="m-518.57-488.52a12.964 12.964 0 0 1-12.96 12.964 12.964 12.964 0 0 1-12.968-12.956 12.964 12.964 0 0 1 12.952-12.972 12.964 12.964 0 0 1 12.976 12.948" fill="#fff" style="paint-order:stroke markers fill"/>
  </g>
  <g transform="matrix(1.0141 .16686 -.16686 1.0141 875.76 302.59)" fill-opacity=".48131">
   <path d="m-499.71-473.79a47.143 40.071 0 0 1-47.128 40.071 47.143 40.071 0 0 1-47.157-40.047 47.143 40.071 0 0 1 47.1-40.096 47.143 40.071 0 0 1 47.186 40.022" fill="#80ffdb" stroke="#64dfdf" stroke-linecap="round" stroke-width="5" style="paint-order:stroke markers fill"/>
   <path d="m-518.57-488.52a12.964 12.964 0 0 1-12.96 12.964 12.964 12.964 0 0 1-12.968-12.956 12.964 12.964 0 0 1 12.952-12.972 12.964 12.964 0 0 1 12.976 12.948" fill="#fff" style="paint-order:stroke markers fill"/>
  </g>
  <g transform="matrix(.97062 .24854 -.24854 .97062 1437.3 1275.4)" fill-opacity=".48131">
   <path d="m-499.71-473.79a47.143 40.071 0 0 1-47.128 40.071 47.143 40.071 0 0 1-47.157-40.047 47.143 40.071 0 0 1 47.1-40.096 47.143 40.071 0 0 1 47.186 40.022" fill="#80ffdb" stroke="#64dfdf" stroke-linecap="round" stroke-width="5" style="paint-order:stroke markers fill"/>
   <path d="m-518.57-488.52a12.964 12.964 0 0 1-12.96 12.964 12.964 12.964 0 0 1-12.968-12.956 12.964 12.964 0 0 1 12.952-12.972 12.964 12.964 0 0 1 12.976 12.948" fill="#fff" style="paint-order:stroke markers fill"/>
  </g>
  <g transform="matrix(1.0238 .11267 -.11267 1.0238 2051.7 1241)" fill-opacity=".48131">
   <path d="m-499.71-473.79a47.143 40.071 0 0 1-47.128 40.071 47.143 40.071 0 0 1-47.157-40.047 47.143 40.071 0 0 1 47.1-40.096 47.143 40.071 0 0 1 47.186 40.022" fill="#80ffdb" stroke="#64dfdf" stroke-linecap="round" stroke-width="5" style="paint-order:stroke markers fill"/>
   <path d="m-518.57-488.52a12.964 12.964 0 0 1-12.96 12.964 12.964 12.964 0 0 1-12.968-12.956 12.964 12.964 0 0 1 12.952-12.972 12.964 12.964 0 0 1 12.976 12.948" fill="#fff" style="paint-order:stroke markers fill"/>
  </g>
  <g fill="#ffe5ec" fill-opacity=".66667" stroke="#fb6f92" stroke-linecap="round" stroke-opacity=".68628">
   <path id="path21056" transform="scale(.26458)" d="m-3928.8-1955.5c5.761-10.335-101.04-13.297-89.567-16.196 16.048-4.0559-124.92 63.144-108.68 66.34 11.61 2.2852-18.577-100.2-12.274-90.188 8.8166 14.009-98.656-99.296-96.678-82.862 1.4144 11.748 89.558-48.632 81.981-39.543-10.599 12.714 63.95-124.51 48.931-117.55-10.736 4.9754 73.927 70.147 62.942 65.749-15.367-6.1517 138.18 22.344 126.92 10.211-8.0494-8.6728-43.869 91.985-43.081 80.179 1.1018-16.516 21.45 138.32 29.509 123.86z" fill="#ffe5ec" fill-opacity=".66667" stroke="#fb6f92" stroke-linecap="round" stroke-opacity=".68628" stroke-width="18.898" style="paint-order:stroke markers fill"/>
   <path transform="scale(.26458)" d="m3049.1-1680.2c-0.312 0-0.6845 0.1377-1.1211 0.4375-1.4902 1.0231-0.4043 3.1167 2.1367 5.793 0.3538-3.7449 0.1745-6.2135-1.0156-6.2305zm1.0156 6.2305c-2.2329 23.636-30.692 109.8-32.205 120.73-6.9617 3.8306-52.332 46.212-69.09 54.211 21.788 9.4275 94.931 63.114 104.86 67.936 1.4912 7.8035 27.78 64.051 30.209 82.461 15.698-17.809 89.367-70.786 97.018-78.738 7.8894 0.9919 69.5-6.6291 87.758-3.25-12.086-20.435-39.707-106.86-44.906-116.6 3.3799-7.186 15.175-68.148 24.031-84.469-23.17 5.1805-113.92 4.7401-124.77 6.6777-5.798-5.439-60.121-35.491-72.906-48.957zm197.68 42.279c4.6329-1.036 6.8718-2.269 4.8496-3.8223-1.4334-1.1011-3.0897 0.579-4.8496 3.8223zm20.875 201.07c2.4172 4.0868 4.2823 5.8351 5.1348 3.4316 0.6042-1.7036-1.5063-2.7601-5.1348-3.4316zm-184.78 81.988c-3.1391 3.5612-4.2247 5.8753-1.6757 5.9434 1.8069 0.048 2.1584-2.2847 1.6757-5.9434zm-135.07-150.4c-4.3576-1.8855-6.8949-2.2033-6.1719 0.2421 0.5125 1.7335 2.8415 1.3474 6.1719-0.2421zm-1347-7.1895c-0.3078-0.01-0.6768 0.1225-1.1133 0.4102-1.4897 0.9817-0.4578 3.0711 2 5.7597 0.4195-3.69 0.2876-6.1309-0.8867-6.1699zm0.8867 6.1699c-2.6469 23.285-32.339 107.77-34.037 118.53-6.9426 3.6512-52.503 44.623-69.189 52.203 21.327 9.712 92.508 64.062 102.21 68.998 1.3252 7.7274 26.212 63.72 28.266 81.934 15.826-17.281 89.509-68.18 97.205-75.883 7.7558 1.128 68.704-5.2384 86.66-1.5625-11.544-20.389-37.182-106.2-42.131-115.9 3.4704-7.0339 16.247-66.963 25.291-82.902-22.96 4.6785-112.49 2.5476-123.24 4.2558-5.6151-5.4731-58.663-36.142-71.029-49.67zm194.27 45.414c4.5914-0.9356 6.8239-2.111 4.8574-3.6817-1.394-1.1133-3.06 0.5139-4.8574 3.6817zm16.84 198.8c2.3084 4.077 4.1179 5.8359 5.0039 3.4804 0.6282-1.6698-1.4355-2.7499-5.0039-3.4804zm-183.87 77.445c-3.1653 3.4562-4.28 5.7211-1.7656 5.8359 1.7824 0.081 2.1738-2.2158 1.7656-5.8359zm-130.47-150.93c-4.2651-1.9422-6.7615-2.3037-6.0938 0.1231 0.4734 1.7202 2.7774 1.3835 6.0938-0.1231zm943.35-145.54c-1.7701 0.3854-1.5541 2.7402-0.209 6.1856 2.2033-4.217 2.706-6.7291 0.209-6.1856zm-0.209 6.1856c-11.018 21.087-70.036 90.265-75.58 99.836-7.9087 0.9192-66.05 23.076-84.629 24.156 16.65 16.994 64.203 94.497 71.594 102.73-1.5699 7.8056 1.5348 69.951-3.1797 87.953 21.306-10.584 109.72-31.862 119.83-36.346 6.9463 3.9066 67.001 20.157 82.664 30.203-3.4815-23.535 3.6037-114.2 2.4629-125.2 5.8594-5.3947 39.872-57.491 54.268-69.285-23.461-3.9631-107.49-38.714-118.3-41.029-3.3185-7.238-42.357-55.688-49.125-73.023zm167.43 114.05c4.6922 0.7926 7.236 0.4942 5.9473-1.7129-0.9135-1.5645-3.0861-0.6312-5.9473 1.7129zm-56.73 194.48c0.6962 4.7061 1.7662 7.0343 3.4668 5.1269 1.2055-1.3521-0.3538-3.1304-3.4668-5.1269zm-202.49 6.1426c-4.2601 2.1162-6.1422 3.853-3.8027 4.8808 1.658 0.7287 2.8658-1.3036 3.8027-4.8808zm-68.414-190.68c-3.3297-3.3987-5.5637-4.6542-5.8183-2.1114-0.1806 1.8026 2.1258 2.326 5.8183 2.1114zm-1128.4 662.21c-0.289-0.0685-0.6652-0.0128-1.1328 0.17579-1.5959 0.64356-1.017 2.815 0.793 5.8262 1.1008-3.4074 1.4424-5.7408 0.3398-6.002zm-0.3398 6.002c-6.9477 21.506-51.159 95.711-54.818 105.55-7.2659 2.1292-58.163 32.161-75.383 36.139 18.306 13.253 75.226 78.235 83.453 84.752-0.2225 7.5601 12.612 65.249 11.074 82.859 18.264-13.315 97.639-47.359 106.39-53.174 7.1226 2.5479 65.953 8.1663 82.226 15.07-7.0198-21.482-14.87-107.5-17.695-117.62 4.6243-5.9866 28.15-60.203 39.744-73.545-22.601 0.0379-106.84-19.078-117.33-19.516-4.2611-6.2451-48.557-45.374-57.664-60.525zm174.99 80.041c4.5195-8e-3 6.8541-0.6922 5.2949-2.5527-1.1052-1.3188-2.9906-0.0989-5.2949 2.5527zm-22.049 191.16c1.4039 4.2961 2.7768 6.3059 4.0645 4.248 0.9128-1.4588-0.8299-2.8758-4.0645-4.248zm-188.62 38.104c-3.6524 2.6632-5.1384 4.5909-2.7832 5.1797 1.6695 0.41738 2.4782-1.6794 2.7832-5.1797zm-94.527-167.61c-3.6603-2.6499-5.951-3.4684-5.7832-1.0469 0.1189 1.7164 2.3613 1.8372 5.7832 1.0469zm3428.1-82.793c-0.3037-0.0399-0.6845 0.0563-1.1445 0.29883-1.57 0.82772-0.7492 2.9946 1.4238 5.8945 0.7723-3.6116 0.8794-6.041-0.2793-6.1934zm0.2793 6.1934c-4.8736 22.793-42.451 103.56-45.176 114.05-7.226 2.9417-56.299 39.094-73.553 44.982 20.172 11.678 85.376 72.377 94.506 78.207 0.5628 7.7765 19.782 65.623 20.051 83.854 4.0697-3.6556 11.312-8.7596 20.426-14.664-6.2915 13.392-14.076 29.643-15.06 32.957-7.1996 2.6437-56.636 36.477-73.785 41.672 19.416 12.161 81.393 74.014 90.158 80.049 0.2906 7.6667 17.19 65.134 16.832 83.049 17.569-14.709 95.547-54.538 103.99-61.008 7.3895 2.0927 67.261 3.7816 84.186 9.6582-8.5591-21.248-22.343-107.71-25.889-117.75 4.2691-6.3648 24.381-62.805 35.201-77.086-22.853 1.5745-109.35-12.033-119.99-11.764-2.0815-2.6497-13.827-12.325-25.629-22.326 6.7198-4.0772 11.39-7.0528 13.144-8.4961 7.5747 1.8675 68.526 1.4661 85.945 6.8438-9.4552-21.304-26.53-108.75-30.488-118.82 4.1177-6.6308 22.569-64.716 33.066-79.623-23.186 2.4082-111.62-8.3731-122.43-7.7227-5.0326-5.9644-54.577-41.463-65.51-56.053zm187.94 63.775c4.6369-0.48162 6.9609-1.4302 5.166-3.1758-1.2725-1.2375-3.0793 0.21252-5.166 3.1758zm-2.5781 198.45c1.8906 4.2598 3.5099 6.1758 4.6152 3.9297 0.7836-1.5923-1.1533-2.8609-4.6152-3.9297zm46.531 35.742c4.5696-0.31484 6.8848-1.1658 5.1817-2.9414-1.2073-1.2586-3.0316 0.10374-5.1817 2.9414zm-9.3125 194.84c1.7116 4.2489 3.238 6.1862 4.4004 4.0176 0.824-1.5373-1.0366-2.8496-4.4004-4.0176zm-188.18 51.35c-3.5138 2.9418-4.8851 4.9922-2.4629 5.4277 1.7169 0.30871 2.3917-1.8665 2.4629-5.4277zm-106.99-163.1c-3.8828-2.432-6.2561-3.1039-5.9218-0.66601 0.2369 1.7282 2.5135 1.6985 5.9218 0.66601zm68.42-59.965c-3.4679 3.1149-4.7905 5.2483-2.3125 5.6055 1.7566 0.25317 2.3659-1.9823 2.3125-5.6055zm-114.56-162.06c-4.0338-2.3354-6.471-2.9338-6.0449-0.46679 0.302 1.7489 2.6156 1.6372 6.0449 0.46679zm-3102.7 3309.1c-0.3038-0.03-0.6799 0.081-1.1308 0.3379-1.5391 0.8782-0.648 3.0124 1.6172 5.834 0.6504-3.6298 0.6749-6.0585-0.4864-6.1719zm0.4864 6.1719c-4.1052 22.908-38.915 104.75-41.281 115.3-7.1132 3.1765-54.879 40.883-71.896 47.33 20.515 10.981 87.595 69.372 96.902 74.889 0.8196 7.7389 21.924 64.824 22.799 83.004 16.784-16.119 93.051-61.874 101.17-69.018 7.614 1.6118 68.422-0.8174 85.984 3.9687-10.143-20.942-30.089-107.62-34.375-117.54 3.8874-6.7505 20.366-65.33 30.344-80.551-23.053 3.1749-111.65-4.6374-122.41-3.6289-5.2126-5.7795-55.834-39.555-67.23-53.75zm189.64 57.379c4.61-0.6349 6.8978-1.658 5.0488-3.3398-1.3105-1.1922-3.0659 0.315-5.0488 3.3398zm4.0313 198.1c2.0282 4.1877 3.7101 6.0456 4.7382 3.7676 0.7289-1.615-1.2478-2.8164-4.7382-3.7676zm-187.15 65.049c-3.3564 3.2234-4.6055 5.3961-2.1211 5.67 1.761 0.1941 2.2949-2.0572 2.1211-5.67zm-119.7-157.89c-4.1025-2.196-6.5541-2.7131-6.0468-0.2657 0.3595 1.7346 2.6654 1.5468 6.0468 0.2657z" stroke-width="18.966" style="paint-order:stroke markers fill"/>
   <path transform="scale(.26458)" d="m-1809.9-2019.2c-0.292-0.092-0.6807-0.062-1.1758 0.096-1.6898 0.5398-1.2615 2.8151 0.3691 6.0488 1.3921-3.4191 1.9203-5.7918 0.8067-6.1445zm-0.8067 6.1445c-8.7853 21.579-59.9 94.49-64.416 104.33-7.6207 1.6273-62.249 28.621-80.26 31.396 17.809 15.025 71.355 86.168 79.32 93.504-0.8063 7.755 7.9817 68.043 5.0566 86.031 19.791-12.294 104-41.235 113.44-46.543 7.1225 3.1629 67.182 13.436 83.385 21.777-5.5764-22.62-7.0769-111.65-9.2089-122.27 5.2126-5.8047 33.536-59.742 46.475-72.574-23.238-1.687-108.38-27.771-119.13-29.024-3.9019-6.7441-46.455-50.357-54.66-66.629zm1975.7 519.32c-0.30545 0-0.67081 0.1371-1.0976 0.4317-1.4571 1.0056-0.38672 3.0545 2.1094 5.6699 0.33745-3.668 0.15374-6.0878-1.0117-6.1016zm1.0117 6.1016c-2.1299 23.152-29.792 107.59-31.244 118.29-6.8068 3.7672-51.128 45.373-67.518 53.246 21.358 9.1789 93.109 61.571 102.84 66.266 1.4782 7.6358 27.357 62.647 29.779 80.668 15.331-17.477 87.331-69.528 94.801-77.332 7.7153 0.9544 68.038-6.6561 85.924-3.3907-11.883-19.976-39.137-104.54-44.252-114.06 3.2924-7.0486 14.69-66.759 23.322-82.764-22.678 5.128-111.52 4.9148-122.15 6.8379-5.6879-5.3103-58.948-34.602-71.504-47.758zm6564 117.93c-0.2979-0.071-0.6872-0.013-1.1718 0.1816-1.6538 0.6653-1.0576 2.9143 0.8144 6.0352 1.1436-3.5288 1.4994-5.9453 0.3574-6.2168zm-0.3574 6.2168c-7.2176 22.272-53.088 99.107-56.887 109.3-7.5243 2.1958-60.279 33.259-78.125 37.365 18.952 13.747 77.854 81.119 86.371 87.879-0.2367 7.8336 13.004 67.607 11.394 85.848 18.93-13.776 101.2-48.972 110.27-54.986 7.3731 2.6461 68.32 8.5234 85.17 15.691-7.2522-22.258-15.305-111.38-18.223-121.86 4.7954-6.1956 29.216-62.341 41.24-76.152-23.414 0.018-110.66-19.864-121.53-20.328-4.4161-6.4797-50.261-47.051-59.68-62.754zm-9280.8 1692.8c-0.2971 0.0295-0.6348 0.20499-1.0176 0.53711-1.3062 1.1335-0.047 3.0074 2.6582 5.2773-0.068-3.5984-0.5073-5.9268-1.6406-5.8144zm1.6406 5.8144c0.4293 22.709-17.319 107.68-17.58 118.23-6.2017 4.39-44.754 49.581-59.82 58.994 21.732 6.6099 97.064 49.75 107.02 53.256 2.2622 7.2598 33.324 57.888 37.619 75.123 12.998-18.622 77.303-76.937 83.719-85.324 7.601 0.0927 65.348-13.805 83.07-12.564-13.696-18.121-49.282-97.294-55.275-105.99 2.4369-7.1933 7.0642-66.417 13.721-82.889-21.466 7.4265-107.78 16.805-117.88 19.818-6.1034-4.5456-60.98-27.243-74.588-38.662zm-1487.3 829.68c-0.289-0.063-0.6624-2e-4 -1.125 0.1953-1.5789 0.6672-0.9675 2.8199 0.8848 5.789 1.0408-3.4123 1.3428-5.7423 0.2402-5.9843zm-0.2402 5.9843c-6.5675 21.534-49.374 96.159-52.857 106.02-7.1956 2.236-57.394 32.986-74.48 37.23 18.449 12.898 76.199 76.674 84.502 83.033-0.097 7.535 13.633 64.777 12.391 82.34 17.966-13.56 96.47-48.775 105.08-54.707 7.1375 2.4206 65.822 7.0515 82.139 13.66-7.3449-21.278-16.579-106.83-19.559-116.85 4.5067-6.0375 27.045-60.417 38.373-73.896-22.507 0.4089-106.71-17.24-117.17-17.506-4.3438-6.1475-49.104-44.39-58.424-59.33zm-733.65 69.678c-11.389 20.366-71.169 86.537-76.867 95.762-7.7752 0.6794-65.39 20.781-83.633 21.322 15.85 17.126 60.309 94.432 67.32 102.7-1.7557 7.6157-0.4436 68.616-5.5664 86.129 21.182-9.7818 108.45-28.18 118.48-32.293 6.6905 4.0207 65.118 21.625 80.193 31.91-2.757-23.168 6.7121-111.84 5.9004-122.66 5.8933-5.1239 40.686-55.244 55.127-66.406-22.888-4.5382-104.29-40.946-114.83-43.516-3.0493-7.1853-39.971-55.769-46.123-72.951zm6856.1 103.54c-0.2937 0.037-0.6254 0.2214-0.9961 0.5606-1.2653 1.1577 0.033 2.9823 2.7735 5.1621-0.1611-3.5659-0.6569-5.8636-1.7774-5.7227zm1.7774 5.7227c1.016 22.502-14.368 107.19-14.35 117.66-6.0398 4.5223-43.071 50.309-57.76 60.033 21.714 5.9867 97.505 46.785 107.47 50.004 2.4302 7.1358 34.539 56.512 39.246 73.486 12.402-18.8 74.626-78.276 80.766-86.756 7.5334-0.1048 64.416-15.384 82.018-14.617-14.048-17.604-51.388-95.17-57.553-103.62 2.2283-7.2045 5.2763-66.021 11.445-82.52-21.084 7.9201-106.39 19.464-116.34 22.715-6.1584-4.3438-61.155-25.416-74.943-36.383zm-7493 200.72c-0.3093 0.021-0.6679 0.1917-1.0762 0.5234-1.3933 1.132-0.1492 3.1186 2.5801 5.5645 0.051-3.7353-0.3244-6.1663-1.5039-6.0879zm1.5039 6.0879c-0.3196 23.576-21.597 111.14-22.223 122.08-6.5818 4.3449-48.106 49.931-64.057 59.191 22.325 7.5897 99.039 54.894 109.24 58.863 2.1034 7.6101 32.621 61.182 36.498 79.211 14.116-18.885 82.8-77.22 89.738-85.705 7.8771 0.354 68.265-12.12 86.613-10.236-13.6-19.264-47.851-102.61-53.777-111.83 2.7714-7.3907 9.5701-68.676 17.031-85.539-22.519 6.9819-112.39 13.806-122.98 16.592-6.1727-4.9187-62.354-30.324-76.088-42.631zm10566 541.88c-0.2989-0.023-0.6663 0.091-1.1035 0.3516-1.4919 0.8888-0.5793 2.9648 1.6914 5.6875 0.5707-3.5695 0.5523-5.9493-0.5879-6.0391zm0.5879 6.0391c-3.6016 22.526-36.207 103.38-38.332 113.76-6.9091 3.2408-53.027 41.073-69.59 47.709 20.31 10.385 87.129 66.383 96.348 71.613 0.9474 7.573 22.679 63.126 23.871 80.928 16.152-16.106 90.058-62.353 97.881-69.504 7.4997 1.4386 67.048-2.061 84.344 2.3066-10.326-20.337-31.471-104.91-35.856-114.57 3.6854-6.6865 18.757-64.399 28.256-79.502-22.533 3.5361-109.5-2.4907-120.04-1.3047-5.2195-5.5708-55.456-37.739-66.883-51.439zm2421.5 567.64c-11.283 20.201-70.534 85.852-76.178 95-7.7203 0.6821-64.831 20.639-82.92 21.186 15.726 16.973 59.852 93.612 66.809 101.81-1.737 7.5553-0.4058 68.041-5.4766 85.41 20.998-9.7102 107.52-27.997 117.47-32.082 6.6323 3.9826 64.58 21.408 79.537 31.6-2.7453-22.976 6.602-110.91 5.791-121.63 5.8417-5.0843 40.319-54.805 54.633-65.879-22.697-4.4879-103.44-40.548-113.89-43.092-3.0269-7.1229-39.665-55.283-45.774-72.318zm-1338 33.162c-0.3071 0.04-0.653 0.2332-1.0391 0.5898-1.3179 1.2173 0.048 3.1221 2.9258 5.3887-0.1862-3.7298-0.7152-6.1315-1.8867-5.9785zm1.8867 5.9785c1.1745 23.536-14.496 112.21-14.426 123.16-6.2909 4.7535-44.812 52.849-60.131 63.092 22.742 6.1525 102.24 48.462 112.68 51.779 2.5794 7.4552 36.411 58.946 41.422 76.682 12.882-19.73 77.683-82.26 84.062-91.16 7.8799-0.1469 67.311-16.415 85.729-15.699-14.784-18.35-54.227-99.298-60.721-108.12 2.2953-7.5398 5.1906-69.09 11.562-86.385-22.018 8.3902-111.2 20.891-121.59 24.34-6.468-4.5136-64.106-26.286-78.584-37.689zm-11153 96.967c-0.2877-0.071-0.6624-0.019-1.1308 0.1641-1.5988 0.6261-1.0434 2.7976 0.7324 5.8203 1.1327-3.3889 1.4959-5.7128 0.3984-5.9844zm-0.3984 5.9844c-7.1491 21.388-52.009 94.984-55.756 104.76-7.2714 2.0517-58.35 31.5-75.572 35.297 18.131 13.407 74.259 78.808 82.406 85.398-0.3 7.534 11.929 65.232 10.217 82.785 18.354-13.101 97.905-46.277 106.69-51.986 7.0837 2.6139 65.721 8.8133 81.887 15.865-6.7881-21.504-13.756-107.41-16.473-117.53 4.6745-5.9279 28.692-59.782 40.394-72.977-22.548-0.1886-106.41-20.111-116.87-20.652-4.1969-6.2804-47.988-45.76-56.922-60.967zm4151.5 298.3c-0.30817-0.019-0.68359 0.1046-1.1289 0.3808-1.5198 0.9429-0.54141 3.0644 1.8477 5.8262 0.52157-3.6857 0.45686-6.1357-0.71875-6.207zm0.71875 6.207c-3.2917 23.261-35.372 107.12-37.365 117.84-7.0578 3.4685-53.839 43.271-70.768 50.408 21.103 10.317 90.93 66.729 100.52 71.949 1.1137 7.7758 24.519 64.574 26.076 82.883 16.334-16.883 91.573-65.866 99.492-73.371 7.7439 1.3431 68.992-3.3625 86.883 0.8144-11.008-20.75-34.343-107.44-39.035-117.3 3.6705-6.9499 18.12-66.654 27.621-82.379-23.138 4.0572-112.8-0.5397-123.62 0.877-5.4811-5.6413-57.791-37.83-69.811-51.725zm-933.56 518.29c-0.2912-0.068-0.6683-0.011-1.1386 0.1797-1.605 0.6518-1.0185 2.8368 0.8105 5.8633 1.1-3.4335 1.4389-5.7828 0.3281-6.043zm-0.3281 6.043c-6.9426 21.671-51.274 96.496-54.932 106.41-7.3105 2.1617-58.478 32.522-75.807 36.57 18.464 13.298 75.927 78.583 84.229 85.127-0.2033 7.6199 12.86 65.664 11.355 83.396 18.355-13.451 98.196-47.928 106.99-53.801 7.1757 2.5477 66.425 8.0614 82.826 14.973-7.1207-21.612-15.238-108.2-18.107-118.38 4.6396-6.0351 28.192-60.679 39.834-74.144-22.754 0.094-107.6-18.942-118.18-19.359-4.3006-6.2735-49.004-45.567-58.209-60.799zm176.38 80.158c4.5507-0.019 6.9006-0.7165 5.3262-2.586-1.1163-1.3253-3.0121-0.091-5.3262 2.586zm-21.727 192.52c1.4241 4.3222 2.8121 6.3407 4.1035 4.2656 0.9155-1.4709-0.8437-2.892-4.1035-4.2656zm-189.81 38.828c-3.6706 2.6901-5.1617 4.6338-2.789 5.2207 1.6818 0.4161 2.49-1.696 2.789-5.2207zm-95.584-168.52c-3.6919-2.659-6.001-3.4767-5.8261-1.0391 0.124 1.728 2.3821 1.8436 5.8261 1.0391zm2010.2 2199c-0.29059-0.066-0.66732-0.01-1.1348 0.1875-1.5952 0.6597-0.99645 2.8314 0.8457 5.8359 1.074-3.4277 1.3974-5.7712 0.28907-6.0234zm-0.28907 6.0234c-6.7795 21.636-50.478 96.474-54.061 106.38-7.2659 2.1972-58.061 32.775-75.305 36.92 18.481 13.133 76.151 77.815 84.467 84.287-0.15753 7.5829 13.231 65.349 11.844 83.029 18.206-13.52 97.548-48.382 106.26-54.287 7.1703 2.4933 66.238 7.6121 82.623 14.395-7.2324-21.489-15.869-107.72-18.793-117.84 4.5845-6.0419 27.708-60.645 39.223-74.133-22.673 0.2374-107.34-18.192-117.88-18.541-4.3296-6.2273-49.115-45.092-58.385-60.211z" stroke-width="19.082" style="paint-order:stroke markers fill"/>
  </g>
  <use transform="matrix(.99368 -.029378 .029378 .99368 1555.2 687.04)" width="100%" height="100%" xlink:href="#path21056"/>
  <use transform="matrix(.95881 .20288 -.20288 .95881 1787.4 2369.1)" width="100%" height="100%" xlink:href="#path21056"/>
  <use transform="matrix(.94685 -.2885 .2885 .94685 2144.4 1734.4)" width="100%" height="100%" xlink:href="#path21056"/>
  <use transform="matrix(.98006 .27095 -.27095 .98006 812.32 1535.4)" width="100%" height="100%" xlink:href="#path21056"/>
  <use transform="matrix(.94287 -.2954 .2954 .94287 2391.7 951.96)" width="100%" height="100%" xlink:href="#path21056"/>
 </g>
 <g transform="matrix(3.4398 0 0 3.4398 -280.38 -652.99)">
  <rect x="41.25" y="80.143" width="70.714" height="134.36" ry="5.8929" fill="#003566" stroke="#001d3d" stroke-linecap="round" stroke-width="6.6" style="paint-order:stroke markers fill"/>
  <g transform="translate(.58928)">
   <path d="m98.411 167.95a22.393 22.393 0 0 1-22.386 22.393 22.393 22.393 0 0 1-22.4-22.379 22.393 22.393 0 0 1 22.372-22.407 22.393 22.393 0 0 1 22.413 22.365" fill="#fcbf49" stroke="#001d3d" stroke-linecap="round" stroke-width="8.539" style="paint-order:stroke markers fill"/>
   <path d="m81.583 167.95a5.5655 5.5655 0 0 1-5.5638 5.5655 5.5655 5.5655 0 0 1-5.5672-5.5621 5.5655 5.5655 0 0 1 5.5604-5.5689 5.5655 5.5655 0 0 1 5.5706 5.5587" fill="#001d3d" style="paint-order:stroke markers fill"/>
  </g>
  <g transform="matrix(.49166 0 0 .49166 39.232 31.749)">
   <path d="m98.411 167.95a22.393 22.393 0 0 1-22.386 22.393 22.393 22.393 0 0 1-22.4-22.379 22.393 22.393 0 0 1 22.372-22.407 22.393 22.393 0 0 1 22.413 22.365" fill="#fcbf49" stroke="#001d3d" stroke-linecap="round" stroke-width="8.539" style="paint-order:stroke markers fill"/>
   <path d="m81.583 167.95a5.5655 5.5655 0 0 1-5.5638 5.5655 5.5655 5.5655 0 0 1-5.5672-5.5621 5.5655 5.5655 0 0 1 5.5604-5.5689 5.5655 5.5655 0 0 1 5.5706 5.5587" fill="#001d3d" style="paint-order:stroke markers fill"/>
  </g>
  <rect x="110.79" y="93.696" width="70.714" height="134.36" ry="5.8929" fill="#efd3d7" stroke="#b5838d" stroke-linecap="round" stroke-width="6.6" style="paint-order:stroke markers fill"/>
  <g transform="translate(70.125 17.679)">
   <path d="m98.411 167.95a22.393 22.393 0 0 1-22.386 22.393 22.393 22.393 0 0 1-22.4-22.379 22.393 22.393 0 0 1 22.372-22.407 22.393 22.393 0 0 1 22.413 22.365" fill="#fff3b0" stroke="#b5838d" stroke-linecap="round" stroke-width="8.539" style="paint-order:stroke markers fill"/>
   <path d="m81.583 167.95a5.5655 5.5655 0 0 1-5.5638 5.5655 5.5655 5.5655 0 0 1-5.5672-5.5621 5.5655 5.5655 0 0 1 5.5604-5.5689 5.5655 5.5655 0 0 1 5.5706 5.5587" fill="#b5838d" style="paint-order:stroke markers fill"/>
  </g>
  <g transform="matrix(.49166 0 0 .49166 108.77 49.428)">
   <path d="m98.411 167.95a22.393 22.393 0 0 1-22.386 22.393 22.393 22.393 0 0 1-22.4-22.379 22.393 22.393 0 0 1 22.372-22.407 22.393 22.393 0 0 1 22.413 22.365" fill="#fff3b0" stroke="#b5838d" stroke-linecap="round" stroke-width="8.539" style="paint-order:stroke markers fill"/>
   <path d="m81.583 167.95a5.5655 5.5655 0 0 1-5.5638 5.5655 5.5655 5.5655 0 0 1-5.5672-5.5621 5.5655 5.5655 0 0 1 5.5604-5.5689 5.5655 5.5655 0 0 1 5.5706 5.5587" fill="#b5838d" style="paint-order:stroke markers fill"/>
  </g>
 </g>
 <g transform="matrix(3.0678 -.65177 .65177 3.0678 -405.86 -298.05)" stroke="#b5838d" stroke-linecap="round" stroke-width="11">
  <path d="m-43.544 254.94c0.23027-3.0506 0.35678-6.1082 0.3793-9.1674l-5.29e-4 -0.16485c-0.04372-35.799-14.304-70.115-39.645-95.401-25.341-25.287-59.687-39.473-95.486-39.441-35.799 0.0328-70.119 14.282-95.414 39.615-25.294 25.333-39.492 59.675-39.47 95.474" fill="none" style="paint-order:stroke markers fill"/>
  <path d="m-43.544 284.94c0.23027 3.0506 0.35677 6.1082 0.3793 9.1674l-5.16e-4 0.16484c-0.08429 68.997-33.37 126.68-100.19 134.7-5.3744 0.64559-62.344-0.30828-67.893-0.31336" fill="none" style="paint-order:stroke markers fill"/>
  <g>
   <path d="m12.675 269.33c-9.247-26.887-20.844-31.22-48.147-32.399-1.1107-0.0394-2.2225-0.0414-3.3333-6e-3l-4.3168 98.613c1.1136 0.13325 2.2314 0.22861 3.3514 0.28591l0.06035 2e-3c27.304 1.1618 41.214-2.1082 50.718-21.078z" fill="#fcd5ce" style="paint-order:stroke markers fill"/>
   <path d="m-175.74 385.09c-18.587-0.14128-33.771 14.809-33.918 33.396-1.8e-4 0.75595-5.3918 2.3451 0.0758 2.2659l67.134 0.57173c0.0639-0.76013 8.2274 0.97791 0.11405-2.2849l2.1e-4 -0.0411c0.13559-18.587-14.819-33.766-33.406-33.908z" fill="#ffb5a7" style="paint-order:stroke markers fill"/>
   <path d="m-364.66 278.26c9.247-26.887 20.844-31.22 48.147-32.399 1.1107-0.0394 2.2225-0.0414 3.3334-6e-3l4.3168 98.613c-1.1136 0.13325-2.2314 0.22861-3.3514 0.28591l-0.0603 2e-3c-27.304 1.1618-41.214-2.1082-50.718-21.078z" fill="#fcd5ce" style="paint-order:stroke markers fill"/>
   <path d="m-190.33 130.89c-18.588 0-35.854 18.526-36.001-0.0608-1.8e-4 -0.75595 6.6921-12.762 12.16-12.683 25.214-6.0829 50.11-8.0388 74.217 0.26164 0.0639 0.76013 10.727 0.68885 14.698 9.7853 3.2399 22.914-17.717 2.697-34.239 2.697z" fill="#ffb5a7" style="paint-order:stroke markers fill"/>
  </g>
  <rect x="-313.18" y="245.86" width="4.3168" height="98.613" ry="2.1584" fill="none" style="paint-order:stroke markers fill"/>
  <rect x="-43.544" y="254.94" width=".42224" height="80.598" ry=".21112" fill="none" style="paint-order:stroke markers fill"/>
 </g>
 <g transform="matrix(1.6172 1.0165 -1.0165 1.6172 469.03 -591.31)">
  <path d="m321.05 465.86h102.08c-13.762 18.832-18.496 219.18-16.668 260.85 0.99275 22.618-68.79 23.456-67.915 0.83338 1.6486-42.586 0.10596-247.38-17.712-261.47 1e-3 -0.11694 0.0942-0.21111 0.21112-0.21111z" fill="#1a759f" stroke="#05668d" stroke-linecap="round" stroke-width="11" style="paint-order:stroke markers fill"/>
  <g transform="matrix(.77055 0 0 .77055 85.666 106.98)" stroke="#6c757d">
   <rect x="293.35" y="255.01" width="163.34" height="190.01" ry="33.546" fill="#adb5bd" stroke-linecap="round" stroke-width="11" style="paint-order:stroke markers fill"/>
   <g fill="none" stroke-width="10.372">
    <path d="m461.55 305.46-168.68-2.1158"/>
    <path d="m460.83 377.96-168.68-2.1158"/>
    <path d="m461.07 353.79-168.68-2.1158"/>
    <path d="m461.31 329.63-168.68-2.1158"/>
    <path d="m461.79 281.3-168.68-2.1158"/>
   </g>
  </g>
  <g fill="#353535" stroke="#05668d" stroke-linecap="round">
   <path d="m339.77 692.6c26.669 6.5431 56.143 5.5277 69.576 1.0417 6.2738-2.095 5.4805 6.1583 5.4805 12.773 0 6.6143-5.6918 9.7668-11.939 11.939-18.817 6.5431-37.634 4.486-56.451 0-6.434-1.5339-11.939-5.3249-11.939-11.939 0-6.6143-1.1516-15.39 5.2722-13.814z" stroke-width="5.96" style="paint-order:stroke markers fill"/>
   <path d="m331.74 490.93c32.808 6.5431 69.067 5.5277 85.593 1.0417 7.718-2.095 6.7422 6.1583 6.7422 12.773 0 6.6143-7.0021 9.7668-14.688 11.939-23.149 6.5431-46.297 4.486-69.446 0-7.9151-1.5339-14.688-5.3249-14.688-11.939 0-6.6143-1.4167-15.39 6.4858-13.814z" stroke-width="6.6105" style="paint-order:stroke markers fill"/>
   <path d="m316.22 447.59c44.68 6.5431 94.061 5.5277 116.57 1.0417 10.511-2.095 9.1821 6.1583 9.1821 12.773 0 6.6143-9.536 9.7668-20.003 11.939-31.526 6.5431-63.052 4.486-94.577 0-10.78-1.5339-20.003-5.3249-20.003-11.939 0-6.6143-1.9294-15.39 8.833-13.814z" stroke-width="7.7144" style="paint-order:stroke markers fill"/>
  </g>
 </g>
</svg>
